<?xml version="1.0" encoding="UTF-8" standalone="no"?>
<!-- Created with Inkscape (http://www.inkscape.org/) -->

<svg
   xmlns:dc="http://purl.org/dc/elements/1.1/"
   xmlns:cc="http://creativecommons.org/ns#"
   xmlns:rdf="http://www.w3.org/1999/02/22-rdf-syntax-ns#"
   xmlns:svg="http://www.w3.org/2000/svg"
   xmlns="http://www.w3.org/2000/svg"
   xmlns:sodipodi="http://sodipodi.sourceforge.net/DTD/sodipodi-0.dtd"
   xmlns:inkscape="http://www.inkscape.org/namespaces/inkscape"
   width="40"
   height="40"
   id="svg3225"
   version="1.1"
   inkscape:version="0.48.4 r9939"
   sodipodi:docname="New document 1">
  <defs
     id="defs3227" />
  <sodipodi:namedview
     id="base"
     pagecolor="#ffffff"
     bordercolor="#666666"
     borderopacity="1.0"
     inkscape:pageopacity="0.0"
     inkscape:pageshadow="2"
     inkscape:zoom="8"
     inkscape:cx="-18.005727"
     inkscape:cy="20.492641"
     inkscape:document-units="px"
     inkscape:current-layer="layer1"
     showgrid="false"
     inkscape:window-width="1871"
     inkscape:window-height="1056"
     inkscape:window-x="49"
     inkscape:window-y="24"
     inkscape:window-maximized="1" />
  <metadata
     id="metadata3230">
    <rdf:RDF>
      <cc:Work
         rdf:about="">
        <dc:format>image/svg+xml</dc:format>
        <dc:type
           rdf:resource="http://purl.org/dc/dcmitype/StillImage" />
        <dc:title></dc:title>
      </cc:Work>
    </rdf:RDF>
  </metadata>
  <g
     inkscape:label="Layer 1"
     inkscape:groupmode="layer"
     id="layer1"
     transform="translate(0,-1012.3622)">
    <g
       transform="matrix(0.9993471,0,0,0.99033521,-17.112237,37.004215)"
       id="g3232">
      <path
         inkscape:connector-curvature="0"
         id="path5165"
         d="m 19.375,1008.0497 c 1.903781,0.2459 3.124687,2.6039 4.75,3.6875 2.940494,1.9603 14.031159,2.7188 17.125,1.6875 1.867754,-0.6226 4.399775,0.2085 5.625,-0.8125"
         style="fill:none;stroke:#ee7b7b;stroke-width:1.00519598px;stroke-linecap:butt;stroke-linejoin:miter;stroke-opacity:1" />
      <path
         sodipodi:nodetypes="csssssc"
         inkscape:connector-curvature="0"
         id="path4990"
         d="m 18.430266,997.8028 c 0.949993,3.3295 0.606262,6.7498 0.606262,10.3765 0,2.4859 -1.086988,6.4869 0,8.8464 3.698111,8.0273 31.43563,9.8504 36.110121,3.0859 1.562322,-2.2608 1.178952,-25.631 -0.320849,-26.1736 -3.661829,-1.3247 -12.564342,5.617 -15.886056,6.2179 -8.30009,1.5014 -13.700379,-1.2583 -20.509478,-2.3531 z"
         style="fill:#9a0000;fill-opacity:1;stroke:#4f0000;stroke-width:2.01039171;stroke-linecap:butt;stroke-linejoin:miter;stroke-miterlimit:4;stroke-opacity:1;stroke-dasharray:none" />
      <path
         sodipodi:nodetypes="cccsc"
         inkscape:connector-curvature="0"
         id="path5090"
         d="m 46.979896,1000.5794 c 0,0 0.912099,20.1041 -0.691668,22.5322 3.11379,-0.5309 5.061666,-0.9448 8.25937,-3.3671 0.406234,-2.0952 1.618734,-24.2384 0.385067,-23.8916 -1.233667,0.3469 -4.375134,5.189 -7.952769,4.7265 z"
         style="fill:#690000;fill-opacity:1;stroke:none" />
      <path
         inkscape:connector-curvature="0"
         id="path4992"
         d="m 54.862317,993.7783 c -2.938497,-8.63062 -42.136068,-4.19415 -36.110121,4.526 5.521806,7.9907 36.110121,4.4643 36.110121,-4.526 z"
         style="fill:#9a0000;fill-opacity:1;stroke:#4f0000;stroke-width:2.01039171;stroke-linecap:butt;stroke-linejoin:miter;stroke-miterlimit:4;stroke-opacity:1;stroke-dasharray:none" />
      <path
         inkscape:connector-curvature="0"
         id="path4994"
         d="m 25.817938,994.3898 0,-6.04998"
         style="fill:#4169e1;stroke:#4f0000;stroke-width:2.01039171;stroke-linecap:butt;stroke-linejoin:miter;stroke-miterlimit:4;stroke-opacity:1;stroke-dasharray:none" />
      <path
         inkscape:connector-curvature="0"
         id="path4994-4"
         d="m 30.818856,999.0951 0,-6.05"
         style="fill:#4169e1;stroke:#4f0000;stroke-width:2.01039171;stroke-linecap:butt;stroke-linejoin:miter;stroke-miterlimit:4;stroke-opacity:1;stroke-dasharray:none" />
      <path
         inkscape:connector-curvature="0"
         id="path4994-3"
         d="m 37.727392,998.7483 0,-6.05"
         style="fill:#4169e1;stroke:#4f0000;stroke-width:2.01039171;stroke-linecap:butt;stroke-linejoin:miter;stroke-miterlimit:4;stroke-opacity:1;stroke-dasharray:none" />
      <path
         inkscape:connector-curvature="0"
         id="path4994-8"
         d="m 33.532924,992.8516 0,-6.05002"
         style="fill:#4169e1;stroke:#4f0000;stroke-width:2.01039171;stroke-linecap:butt;stroke-linejoin:miter;stroke-miterlimit:4;stroke-opacity:1;stroke-dasharray:none" />
      <path
         inkscape:connector-curvature="0"
         id="path4994-6"
         d="m 45.129395,998.517 0,-6.05"
         style="fill:#4169e1;stroke:#4f0000;stroke-width:2.01039171;stroke-linecap:butt;stroke-linejoin:miter;stroke-miterlimit:4;stroke-opacity:1;stroke-dasharray:none" />
      <path
         inkscape:connector-curvature="0"
         id="path4994-9"
         d="m 41.675127,991.9266 0,-6.04999"
         style="fill:#4169e1;stroke:#4f0000;stroke-width:2.01039171;stroke-linecap:butt;stroke-linejoin:miter;stroke-miterlimit:4;stroke-opacity:1;stroke-dasharray:none" />
      <path
         inkscape:connector-curvature="0"
         id="path4994-2"
         d="m 49.44723,993.4297 0,-6.05001"
         style="fill:#4169e1;stroke:#4f0000;stroke-width:2.01039171;stroke-linecap:butt;stroke-linejoin:miter;stroke-miterlimit:4;stroke-opacity:1;stroke-dasharray:none" />
      <path
         inkscape:connector-curvature="0"
         id="path4994-5"
         d="m 20.826152,996.5515 0,-6.05003"
         style="fill:#4169e1;stroke:#4f0000;stroke-width:2.01039171;stroke-linecap:butt;stroke-linejoin:miter;stroke-miterlimit:4;stroke-opacity:1;stroke-dasharray:none" />
      <path
         transform="matrix(0.65795583,0,0,0.61664868,9.270802,946.00599)"
         d="m 22.625,103.5 c 0,1.24264 -1.007359,2.25 -2.25,2.25 -1.242641,0 -2.25,-1.00736 -2.25,-2.25 0,-1.24264 1.007359,-2.25 2.25,-2.25 1.242641,0 2.25,1.00736 2.25,2.25 z"
         sodipodi:ry="2.25"
         sodipodi:rx="2.25"
         sodipodi:cy="103.5"
         sodipodi:cx="20.375"
         id="path5056"
         style="color:#000000;fill:#4f0000;fill-opacity:1;fill-rule:nonzero;stroke:none;stroke-width:2;marker:none;visibility:visible;display:inline;overflow:visible;enable-background:accumulate"
         sodipodi:type="arc" />
      <path
         transform="matrix(0.65795583,0,0,0.61664868,16.055972,949.47464)"
         d="m 22.625,103.5 c 0,1.24264 -1.007359,2.25 -2.25,2.25 -1.242641,0 -2.25,-1.00736 -2.25,-2.25 0,-1.24264 1.007359,-2.25 2.25,-2.25 1.242641,0 2.25,1.00736 2.25,2.25 z"
         sodipodi:ry="2.25"
         sodipodi:rx="2.25"
         sodipodi:cy="103.5"
         sodipodi:cx="20.375"
         id="path5056-3"
         style="color:#000000;fill:#4f0000;fill-opacity:1;fill-rule:nonzero;stroke:none;stroke-width:2;marker:none;visibility:visible;display:inline;overflow:visible;enable-background:accumulate"
         sodipodi:type="arc" />
      <path
         transform="matrix(0.65795583,0,0,0.61664868,26.66551,949.59026)"
         d="m 22.625,103.5 c 0,1.24264 -1.007359,2.25 -2.25,2.25 -1.242641,0 -2.25,-1.00736 -2.25,-2.25 0,-1.24264 1.007359,-2.25 2.25,-2.25 1.242641,0 2.25,1.00736 2.25,2.25 z"
         sodipodi:ry="2.25"
         sodipodi:rx="2.25"
         sodipodi:cy="103.5"
         sodipodi:cx="20.375"
         id="path5056-6"
         style="color:#000000;fill:#4f0000;fill-opacity:1;fill-rule:nonzero;stroke:none;stroke-width:2;marker:none;visibility:visible;display:inline;overflow:visible;enable-background:accumulate"
         sodipodi:type="arc" />
      <path
         inkscape:connector-curvature="0"
         id="path5124"
         d="m 55.530407,1003.0512 -8.308505,0"
         style="fill:none;stroke:#4f0000;stroke-width:1.00519598px;stroke-linecap:butt;stroke-linejoin:miter;stroke-opacity:1" />
      <path
         inkscape:connector-curvature="0"
         id="path5124-1"
         d="m 55.530407,1007.559 -8.308505,0"
         style="fill:none;stroke:#4f0000;stroke-width:1.00519598px;stroke-linecap:butt;stroke-linejoin:miter;stroke-opacity:1" />
      <path
         inkscape:connector-curvature="0"
         id="path5124-10"
         d="m 55.618795,1013.2159 -8.308505,0"
         style="fill:none;stroke:#4f0000;stroke-width:1.00519598px;stroke-linecap:butt;stroke-linejoin:miter;stroke-opacity:1" />
      <path
         inkscape:connector-curvature="0"
         id="path5124-2"
         d="m 55.176854,1018.1656 -8.308505,0"
         style="fill:none;stroke:#4f0000;stroke-width:1.00519598px;stroke-linecap:butt;stroke-linejoin:miter;stroke-opacity:1" />
    </g>
  </g>
</svg>
