<?xml version="1.0" encoding="UTF-8" standalone="no"?>
<!-- Created with Inkscape (http://www.inkscape.org/) -->

<svg
   xmlns:dc="http://purl.org/dc/elements/1.1/"
   xmlns:cc="http://creativecommons.org/ns#"
   xmlns:rdf="http://www.w3.org/1999/02/22-rdf-syntax-ns#"
   xmlns:svg="http://www.w3.org/2000/svg"
   xmlns="http://www.w3.org/2000/svg"
   xmlns:sodipodi="http://sodipodi.sourceforge.net/DTD/sodipodi-0.dtd"
   xmlns:inkscape="http://www.inkscape.org/namespaces/inkscape"
   width="40"
   height="40"
   id="svg3412"
   version="1.1"
   inkscape:version="0.48.4 r9939"
   sodipodi:docname="demon.svg">
  <defs
     id="defs3414" />
  <sodipodi:namedview
     id="base"
     pagecolor="#ffffff"
     bordercolor="#666666"
     borderopacity="1.0"
     inkscape:pageopacity="0.0"
     inkscape:pageshadow="2"
     inkscape:zoom="8.729927"
     inkscape:cx="67.865448"
     inkscape:cy="10.884179"
     inkscape:document-units="px"
     inkscape:current-layer="layer1"
     showgrid="false"
     inkscape:window-width="1871"
     inkscape:window-height="1056"
     inkscape:window-x="49"
     inkscape:window-y="24"
     inkscape:window-maximized="1" />
  <metadata
     id="metadata3417">
    <rdf:RDF>
      <cc:Work
         rdf:about="">
        <dc:format>image/svg+xml</dc:format>
        <dc:type
           rdf:resource="http://purl.org/dc/dcmitype/StillImage" />
        <dc:title></dc:title>
      </cc:Work>
    </rdf:RDF>
  </metadata>
  <g
     inkscape:label="Layer 1"
     inkscape:groupmode="layer"
     id="layer1"
     transform="translate(0,-1012.3622)">
    <path
       style="fill:none;stroke:#ee7b7b;stroke-width:1px;stroke-linecap:butt;stroke-linejoin:miter;stroke-opacity:1"
       d="m 2.5009159,1033.0203 c 1.9145889,0.2683 3.1424206,2.841 4.7769685,4.0233 2.9571846,2.1388 14.1108226,2.9663 17.2222276,1.8411 1.878355,-0.6793 4.42475,0.2275 5.656937,-0.8865"
       id="path5165-5-9-4"
       inkscape:connector-curvature="0" />
    <path
       style="fill:#ffffff;fill-opacity:1;stroke:#808080;stroke-width:1.99999988;stroke-linecap:butt;stroke-linejoin:miter;stroke-miterlimit:4;stroke-opacity:1;stroke-dasharray:none"
       d="m 1.550812,1021.8404 c 0.9553937,3.6327 0.6097021,7.3644 0.6097021,11.3213 0,2.7123 -1.0931513,7.0776 0,9.6519 3.7191164,8.7582 31.6141079,10.7473 36.3151479,3.3669 1.571191,-2.4667 1.185644,-27.9648 -0.322672,-28.5568 -3.68262,-1.4453 -12.635685,6.1285 -15.976254,6.7841 -8.347214,1.6381 -13.7781648,-1.3729 -20.625924,-2.5674 z"
       id="path4990-6-0-5"
       inkscape:connector-curvature="0"
       sodipodi:nodetypes="csssssc" />
    <path
       style="fill:#d3d3d3;fill-opacity:1;stroke:none"
       d="m 30.262533,1024.8699 c 0,0 0.917279,21.9346 -0.695597,24.5838 3.131469,-0.5793 5.090408,-1.0308 8.306263,-3.6737 0.408546,-2.286 1.627931,-26.4453 0.387256,-26.067 -1.240674,0.3785 -4.399969,5.6615 -7.997922,5.1569 z"
       id="path5090-2-7-1"
       inkscape:connector-curvature="0"
       sodipodi:nodetypes="cccsc" />
    <path
       style="fill:#808080;stroke:#808080;stroke-width:1px;stroke-linecap:butt;stroke-linejoin:miter;stroke-opacity:1"
       d="m 38.861591,1027.5667 -8.355672,0"
       id="path5124-7-1-7"
       inkscape:connector-curvature="0" />
    <path
       style="fill:#808080;stroke:#808080;stroke-width:1px;stroke-linecap:butt;stroke-linejoin:miter;stroke-opacity:1"
       d="m 38.861591,1032.4849 -8.355672,0"
       id="path5124-1-9-7-1"
       inkscape:connector-curvature="0" />
    <path
       style="fill:#808080;stroke:#808080;stroke-width:1px;stroke-linecap:butt;stroke-linejoin:miter;stroke-opacity:1"
       d="m 38.950483,1038.6569 -8.355673,0"
       id="path5124-10-1-0-1"
       inkscape:connector-curvature="0" />
    <path
       style="fill:#808080;stroke:#808080;stroke-width:1px;stroke-linecap:butt;stroke-linejoin:miter;stroke-opacity:1"
       d="m 38.506033,1044.0573 -8.355672,0"
       id="path5124-2-8-9-2"
       inkscape:connector-curvature="0" />
  </g>
</svg>
