<?xml version="1.0" encoding="UTF-8" standalone="no"?>
<!-- Created with Inkscape (http://www.inkscape.org/) -->

<svg
   xmlns:dc="http://purl.org/dc/elements/1.1/"
   xmlns:cc="http://creativecommons.org/ns#"
   xmlns:rdf="http://www.w3.org/1999/02/22-rdf-syntax-ns#"
   xmlns:svg="http://www.w3.org/2000/svg"
   xmlns="http://www.w3.org/2000/svg"
   xmlns:sodipodi="http://sodipodi.sourceforge.net/DTD/sodipodi-0.dtd"
   xmlns:inkscape="http://www.inkscape.org/namespaces/inkscape"
   width="60"
   height="60"
   id="svg3412"
   version="1.1"
   inkscape:version="0.48.4 r9939"
   sodipodi:docname="eye.svg">
  <defs
     id="defs3414" />
  <sodipodi:namedview
     id="base"
     pagecolor="#ffffff"
     bordercolor="#666666"
     borderopacity="1.0"
     inkscape:pageopacity="0.0"
     inkscape:pageshadow="2"
     inkscape:zoom="1"
     inkscape:cx="-31.785938"
     inkscape:cy="-47.275668"
     inkscape:document-units="px"
     inkscape:current-layer="layer1"
     showgrid="false"
     inkscape:window-width="935"
     inkscape:window-height="1028"
     inkscape:window-x="49"
     inkscape:window-y="24"
     inkscape:window-maximized="0" />
  <metadata
     id="metadata3417">
    <rdf:RDF>
      <cc:Work
         rdf:about="">
        <dc:format>image/svg+xml</dc:format>
        <dc:type
           rdf:resource="http://purl.org/dc/dcmitype/StillImage" />
        <dc:title></dc:title>
      </cc:Work>
    </rdf:RDF>
  </metadata>
  <g
     inkscape:label="Layer 1"
     inkscape:groupmode="layer"
     id="layer1"
     transform="translate(0,-992.3622)">
    <g
       id="g4318"
       transform="matrix(1.2414522,0,0,1.2414522,-1180.643,-68.503826)">
      <path
         sodipodi:nodetypes="ccccsczc"
         inkscape:connector-curvature="0"
         id="path4276"
         d="m 960.27127,858.39618 c 1.83729,0 4.91597,6.62892 5.58798,8.26049 11.49775,-0.31809 12.83232,0.11016 17.5954,-0.13597 0.4923,-0.59763 2.34779,1.56428 6.63434,-7.74868 0.18917,5.60422 -4.475,15.55371 -2.97049,28.12199 1.08814,9.09002 -0.61565,5.279 -10.65728,10.50198 -14.20614,-3.6909 -12.85368,-4.9455 -13.52341,-10.84841 -0.66973,-5.90293 0.33332,-11.59066 -2.66654,-28.1514 z"
         style="fill:#8c53ff;fill-opacity:1;stroke:#6011ff;stroke-width:1.61101651;stroke-linecap:butt;stroke-linejoin:miter;stroke-miterlimit:4;stroke-opacity:1;stroke-dasharray:none" />
      <path
         sodipodi:nodetypes="cccccc"
         transform="translate(0,452.36218)"
         inkscape:connector-curvature="0"
         id="path4304"
         d="m 989.55174,407.84373 c 0,0 -1.54922,7.90799 -6.98267,7.07107 -1.98733,8.73411 -1.5026,25.94198 -0.97227,27.2678 2.91681,-0.88388 2.39331,-0.59672 4.77296,-1.76776 1.49577,-1.43621 -0.3626,-9.79886 0.0442,-12.06501 -0.35356,-1.67938 3.13778,-20.5061 3.13778,-20.5061 z"
         style="fill:#7937ff;fill-opacity:1;stroke:none" />
      <path
         transform="translate(0,452.36218)"
         inkscape:connector-curvature="0"
         id="path4306"
         d="m 989.24239,412.6167 -3.09359,0"
         style="fill:none;stroke:#6011ff;stroke-width:0.80550826px;stroke-linecap:butt;stroke-linejoin:miter;stroke-opacity:1" />
      <path
         transform="translate(0,452.36218)"
         inkscape:connector-curvature="0"
         id="path4308"
         d="m 988.53528,416.06385 -6.01041,0"
         style="fill:none;stroke:#6011ff;stroke-width:0.80550826px;stroke-linecap:butt;stroke-linejoin:miter;stroke-opacity:1" />
      <path
         inkscape:connector-curvature="0"
         id="path4310"
         d="m 987.73979,873.25446 -5.92202,0"
         style="fill:none;stroke:#6011ff;stroke-width:0.80550826px;stroke-linecap:butt;stroke-linejoin:miter;stroke-opacity:1" />
      <path
         transform="translate(0,452.36218)"
         inkscape:connector-curvature="0"
         id="path4312"
         d="m 987.03268,426.05173 -5.48008,0"
         style="fill:none;stroke:#6011ff;stroke-width:0.80550826px;stroke-linecap:butt;stroke-linejoin:miter;stroke-opacity:1" />
      <path
         transform="translate(0,452.36218)"
         inkscape:connector-curvature="0"
         id="path4314"
         d="m 986.8559,431.08987 -5.56846,0"
         style="fill:none;stroke:#6011ff;stroke-width:0.80550826px;stroke-linecap:butt;stroke-linejoin:miter;stroke-opacity:1" />
      <path
         inkscape:connector-curvature="0"
         id="path4316"
         d="m 987.38623,889.02051 -6.0988,0"
         style="fill:none;stroke:#6011ff;stroke-width:0.80550826px;stroke-linecap:butt;stroke-linejoin:miter;stroke-opacity:1" />
      <path
         sodipodi:nodetypes="ccccccccccccccc"
         inkscape:connector-curvature="0"
         id="path4280"
         d="m 964.12906,882.55819 2.94573,8.0999 3.25259,-3.78773 2.45477,3.14673 2.0252,-2.33091 3.1912,2.33091 1.96384,-2.44746 2.94572,3.14673 3.68218,-7.69198 -3.8049,2.3309 -3.19122,-2.56401 -3.31396,3.26328 -3.68216,-3.03017 -4.66409,3.37979 z"
         style="fill:#000000;fill-opacity:1;stroke:none" />
      <path
         sodipodi:nodetypes="sscs"
         inkscape:connector-curvature="0"
         id="path4284"
         d="m 970.82951,874.01718 c 0.5302,1.06039 2.56293,1.45696 2.92117,2.53168 0.91583,2.74747 -8.50127,6.66564 -6.79884,-6.29182 1.25214,0.92228 3.09262,2.19003 3.87767,3.76014 z"
         style="fill:#000000;fill-opacity:1;stroke:none" />
      <path
         sodipodi:nodetypes="sscs"
         inkscape:connector-curvature="0"
         id="path4284-3"
         d="m 980.46207,874.06168 c -0.5302,1.06039 -2.56293,1.45695 -2.92117,2.53168 -0.91583,2.74747 8.50127,6.66563 6.79884,-6.29182 -1.25214,0.92227 -3.09262,2.19003 -3.87767,3.76014 z"
         style="fill:#000000;fill-opacity:1;stroke:none" />
    </g>
  </g>
</svg>
