<?xml version="1.0" encoding="UTF-8" standalone="no"?>
<!-- Created with Inkscape (http://www.inkscape.org/) -->

<svg
   xmlns:dc="http://purl.org/dc/elements/1.1/"
   xmlns:cc="http://creativecommons.org/ns#"
   xmlns:rdf="http://www.w3.org/1999/02/22-rdf-syntax-ns#"
   xmlns:svg="http://www.w3.org/2000/svg"
   xmlns="http://www.w3.org/2000/svg"
   xmlns:sodipodi="http://sodipodi.sourceforge.net/DTD/sodipodi-0.dtd"
   xmlns:inkscape="http://www.inkscape.org/namespaces/inkscape"
   width="60"
   height="60"
   id="svg3412"
   version="1.1"
   inkscape:version="0.48.4 r9939"
   sodipodi:docname="select-box.svg">
  <defs
     id="defs3414" />
  <sodipodi:namedview
     id="base"
     pagecolor="#ffffff"
     bordercolor="#666666"
     borderopacity="1.0"
     inkscape:pageopacity="0.0"
     inkscape:pageshadow="2"
     inkscape:zoom="1"
     inkscape:cx="-31.785938"
     inkscape:cy="-47.275668"
     inkscape:document-units="px"
     inkscape:current-layer="layer1"
     showgrid="false"
     inkscape:window-width="935"
     inkscape:window-height="1028"
     inkscape:window-x="49"
     inkscape:window-y="24"
     inkscape:window-maximized="0" />
  <metadata
     id="metadata3417">
    <rdf:RDF>
      <cc:Work
         rdf:about="">
        <dc:format>image/svg+xml</dc:format>
        <dc:type
           rdf:resource="http://purl.org/dc/dcmitype/StillImage" />
        <dc:title></dc:title>
      </cc:Work>
    </rdf:RDF>
  </metadata>
  <g
     inkscape:label="Layer 1"
     inkscape:groupmode="layer"
     id="layer1"
     transform="translate(0,-992.3622)">
    <g
       id="g4150"
       transform="translate(-728.73522,25.073844)">
      <path
         inkscape:connector-curvature="0"
         id="path4019"
         d="m 765.25808,987.98878 c -3.68502,-2.12031 -9.24927,-1.62697 -12.92427,0.24788 -12.82611,6.54342 2.68818,24.88404 13.11862,20.44964 6.05769,-2.5753 5.6879,-18.55402 -0.19435,-20.69752 z"
         style="fill:#6495ed;stroke:none" />
      <path
         sodipodi:nodetypes="ccc"
         inkscape:connector-curvature="0"
         id="path4013"
         d="m 737.73328,997.06719 c 8.72519,12.56991 32.19704,22.83391 42.00388,2.69565 -5.81371,-15.09539 -30.81824,-21.59429 -42.00388,-2.69565 z"
         style="fill:#000000;fill-opacity:0;stroke:#1758c9;stroke-width:2;stroke-linecap:butt;stroke-linejoin:miter;stroke-miterlimit:4;stroke-opacity:1;stroke-dasharray:none" />
      <path
         sodipodi:nodetypes="szs"
         inkscape:connector-curvature="0"
         id="path4017"
         d="m 764.57786,997.53195 c 0.21055,-4.67397 -4.80889,-10.2763 -8.04123,-3.50122 -3.23235,6.77507 7.65253,12.12987 8.04123,3.50122 z"
         style="fill:#1758c9;fill-opacity:1;stroke:none" />
      <path
         transform="matrix(0.54970462,0,0,0.70109611,309.41032,610.58528)"
         d="m 818.25,546.5 c 0,0.55228 -0.44772,1 -1,1 -0.55228,0 -1,-0.44772 -1,-1 0,-0.55228 0.44772,-1 1,-1 0.55228,0 1,0.44772 1,1 z"
         sodipodi:ry="1"
         sodipodi:rx="1"
         sodipodi:cy="546.5"
         sodipodi:cx="817.25"
         id="path4021"
         style="color:#000000;fill:#6495ed;fill-opacity:1;fill-rule:nonzero;stroke:none;stroke-width:2;marker:none;visibility:visible;display:inline;overflow:visible;enable-background:accumulate"
         sodipodi:type="arc" />
      <path
         inkscape:connector-curvature="0"
         id="path4121"
         d="m 771.85547,996.11218 6.72656,0"
         style="fill:none;stroke:#1758c9;stroke-width:1px;stroke-linecap:butt;stroke-linejoin:miter;stroke-opacity:1" />
      <path
         inkscape:connector-curvature="0"
         id="path4123"
         d="m 773.9375,1000.0497 c 4.875,0 4.875,0 4.875,0"
         style="fill:none;stroke:#1758c9;stroke-width:1px;stroke-linecap:butt;stroke-linejoin:miter;stroke-opacity:1" />
      <path
         inkscape:connector-curvature="0"
         id="path4125"
         d="m 772.625,1004.0497 c 4,0 4.0625,0 4.0625,0"
         style="fill:none;stroke:#1758c9;stroke-width:1px;stroke-linecap:butt;stroke-linejoin:miter;stroke-opacity:1" />
      <path
         inkscape:connector-curvature="0"
         id="path4127"
         d="m 770.3125,1007.1122 3.125,0"
         style="fill:none;stroke:#1758c9;stroke-width:1px;stroke-linecap:butt;stroke-linejoin:miter;stroke-opacity:1" />
    </g>
  </g>
</svg>
