<?xml version="1.0" encoding="UTF-8" standalone="no"?>
<!-- Created with Inkscape (http://www.inkscape.org/) -->

<svg
   xmlns:dc="http://purl.org/dc/elements/1.1/"
   xmlns:cc="http://creativecommons.org/ns#"
   xmlns:rdf="http://www.w3.org/1999/02/22-rdf-syntax-ns#"
   xmlns:svg="http://www.w3.org/2000/svg"
   xmlns="http://www.w3.org/2000/svg"
   xmlns:sodipodi="http://sodipodi.sourceforge.net/DTD/sodipodi-0.dtd"
   xmlns:inkscape="http://www.inkscape.org/namespaces/inkscape"
   width="40"
   height="40"
   id="svg3412"
   version="1.1"
   inkscape:version="0.48.4 r9939"
   sodipodi:docname="New document 7">
  <defs
     id="defs3414" />
  <sodipodi:namedview
     id="base"
     pagecolor="#ffffff"
     bordercolor="#666666"
     borderopacity="1.0"
     inkscape:pageopacity="0.0"
     inkscape:pageshadow="2"
     inkscape:zoom="1"
     inkscape:cx="-31.785938"
     inkscape:cy="-47.275668"
     inkscape:document-units="px"
     inkscape:current-layer="layer1"
     showgrid="false"
     inkscape:window-width="1871"
     inkscape:window-height="1056"
     inkscape:window-x="49"
     inkscape:window-y="24"
     inkscape:window-maximized="1" />
  <metadata
     id="metadata3417">
    <rdf:RDF>
      <cc:Work
         rdf:about="">
        <dc:format>image/svg+xml</dc:format>
        <dc:type
           rdf:resource="http://purl.org/dc/dcmitype/StillImage" />
        <dc:title></dc:title>
      </cc:Work>
    </rdf:RDF>
  </metadata>
  <g
     inkscape:label="Layer 1"
     inkscape:groupmode="layer"
     id="layer1"
     transform="translate(0,-1012.3622)">
    <g
       id="g4763"
       transform="matrix(0.98915448,0,0,0.99346958,-14.640231,374.78507)">
      <path
         sodipodi:nodetypes="ccccsccsc"
         inkscape:connector-curvature="0"
         id="path4702"
         d="m 28.697131,655.52241 c 0.832231,-3.60426 -0.556123,-13.29057 7.037446,-12.72419 7.683759,-0.3412 6.312516,7.51073 6.153563,13.07774 10.964565,1.36455 12.161091,-0.10877 12.340748,8.39318 0,8.61292 -5.958946,3.35502 -12.16397,3.35502 -0.06306,0 2.642512,14.42262 -6.330341,13.34292 -8.972853,0.24612 -7.042054,-6.40193 -7.390999,-12.98936 -2.424576,0.0375 -12.981892,-0.58127 -12.517525,-8.39317 0.358383,-6.02896 6.887127,-4.27074 12.871078,-4.06214 z"
         style="fill:#00ff00;stroke:#006400;stroke-width:2.01753306;stroke-linecap:butt;stroke-linejoin:miter;stroke-miterlimit:4;stroke-opacity:1;stroke-dasharray:none" />
      <path
         sodipodi:nodetypes="ccc"
         inkscape:connector-curvature="0"
         id="path4704"
         d="m 35.330213,643.73304 c 0,0 8.176619,-2.51839 5.49448,12.67967 -1.069629,-7.9744 -5.49448,-12.67967 -5.49448,-12.67967 z"
         style="fill:#00b800;fill-opacity:1;stroke:none" />
      <path
         sodipodi:nodetypes="cssc"
         transform="translate(0,452.36218)"
         inkscape:connector-curvature="0"
         id="path4706"
         d="m 48.1875,205.125 c 0,0 3.6875,7 0.375,10.125 -0.39108,0.36894 3.625,1.0625 4.25,0 0.625,-1.0625 3.3125,-10.25 -4.625,-10.125 z"
         style="fill:#00b800;fill-opacity:1;stroke:none" />
      <path
         sodipodi:nodetypes="ccc"
         inkscape:connector-curvature="0"
         id="path4704-3"
         d="m 34.041677,679.79153 c 0,0 10.776775,3.75583 6.94756,-13.12161 -1.421332,7.9744 -6.94756,13.12161 -6.94756,13.12161 z"
         style="fill:#00b800;fill-opacity:1;stroke:none" />
      <path
         transform="translate(0,452.36218)"
         inkscape:connector-curvature="0"
         id="path4726"
         d="m 36.946329,193.4136 3.623923,0"
         style="fill:none;stroke:#006400;stroke-width:1.00876653px;stroke-linecap:butt;stroke-linejoin:miter;stroke-opacity:1" />
      <path
         transform="translate(0,452.36218)"
         inkscape:connector-curvature="0"
         id="path4728"
         d="m 38.714096,196.33042 3.093593,0"
         style="fill:none;stroke:#006400;stroke-width:1.00876653px;stroke-linecap:butt;stroke-linejoin:miter;stroke-opacity:1" />
      <path
         transform="translate(0,452.36218)"
         inkscape:connector-curvature="0"
         id="path4730"
         d="m 49.23231,207.73251 4.24264,0"
         style="fill:none;stroke:#006400;stroke-width:1.00876653px;stroke-linecap:butt;stroke-linejoin:miter;stroke-opacity:1" />
      <path
         transform="translate(0,452.36218)"
         inkscape:connector-curvature="0"
         id="path4732"
         d="m 50.116193,211.09127 4.331029,0"
         style="fill:none;stroke:#006400;stroke-width:1.00876653px;stroke-linecap:butt;stroke-linejoin:miter;stroke-opacity:1" />
      <path
         transform="translate(0,452.36218)"
         inkscape:connector-curvature="0"
         id="path4734"
         d="m 49.409086,214.09647 4.507806,0"
         style="fill:none;stroke:#006400;stroke-width:1.00876653px;stroke-linecap:butt;stroke-linejoin:miter;stroke-opacity:1" />
      <path
         transform="translate(0,452.36218)"
         inkscape:connector-curvature="0"
         id="path4736"
         d="m 39.59798,219.31139 2.65165,0"
         style="fill:none;stroke:#006400;stroke-width:1.00876653px;stroke-linecap:butt;stroke-linejoin:miter;stroke-opacity:1" />
      <path
         transform="translate(0,452.36218)"
         inkscape:connector-curvature="0"
         id="path4738"
         d="m 38.183766,222.40498 4.861359,0"
         style="fill:none;stroke:#006400;stroke-width:1.00876653px;stroke-linecap:butt;stroke-linejoin:miter;stroke-opacity:1" />
      <path
         transform="translate(0,452.36218)"
         inkscape:connector-curvature="0"
         id="path4740"
         d="m 35.885669,225.67535 5.214913,0"
         style="fill:none;stroke:#006400;stroke-width:1.00876653px;stroke-linecap:butt;stroke-linejoin:miter;stroke-opacity:1" />
    </g>
  </g>
</svg>
