<?xml version="1.0" encoding="UTF-8" standalone="no"?>
<!-- Created with Inkscape (http://www.inkscape.org/) -->

<svg
   xmlns:dc="http://purl.org/dc/elements/1.1/"
   xmlns:cc="http://creativecommons.org/ns#"
   xmlns:rdf="http://www.w3.org/1999/02/22-rdf-syntax-ns#"
   xmlns:svg="http://www.w3.org/2000/svg"
   xmlns="http://www.w3.org/2000/svg"
   xmlns:sodipodi="http://sodipodi.sourceforge.net/DTD/sodipodi-0.dtd"
   xmlns:inkscape="http://www.inkscape.org/namespaces/inkscape"
   width="40"
   height="40"
   id="svg3412"
   version="1.1"
   inkscape:version="0.48.4 r9939"
   sodipodi:docname="health-bad.svg">
  <defs
     id="defs3414" />
  <sodipodi:namedview
     id="base"
     pagecolor="#ffffff"
     bordercolor="#666666"
     borderopacity="1.0"
     inkscape:pageopacity="0.0"
     inkscape:pageshadow="2"
     inkscape:zoom="11.313708"
     inkscape:cx="15.178849"
     inkscape:cy="3.9471424"
     inkscape:document-units="px"
     inkscape:current-layer="layer1"
     showgrid="false"
     inkscape:window-width="1871"
     inkscape:window-height="1056"
     inkscape:window-x="49"
     inkscape:window-y="24"
     inkscape:window-maximized="1" />
  <metadata
     id="metadata3417">
    <rdf:RDF>
      <cc:Work
         rdf:about="">
        <dc:format>image/svg+xml</dc:format>
        <dc:type
           rdf:resource="http://purl.org/dc/dcmitype/StillImage" />
        <dc:title></dc:title>
      </cc:Work>
    </rdf:RDF>
  </metadata>
  <g
     inkscape:label="Layer 1"
     inkscape:groupmode="layer"
     id="layer1"
     transform="translate(0,-1012.3622)">
    <g
       id="g3032">
      <path
         sodipodi:nodetypes="ccccsccsc"
         inkscape:connector-curvature="0"
         id="path4702"
         d="m 12.182324,1028.1031 c -0.246095,-3.6659 -4.3402763,-12.4821 3.013307,-14.113 7.178613,-2.5197 8.133099,5.3403 9.580005,10.6806 10.774949,-1.8347 11.485294,-3.5778 14.095035,4.4573 2.471405,8.192 -4.680405,4.8935 -10.556544,6.6663 -0.05972,0.018 6.640928,12.9628 -2.166165,14.4993 -8.426618,2.7977 -8.505794,-4.0771 -10.726466,-10.2429 -2.285379,0.7281 -12.460612,3.156 -14.2624122,-4.4067 -1.39059048,-5.8367 5.2966106,-6.0297 11.0232402,-7.5409 z"
         style="fill:#dcdcdc;stroke:#808080;stroke-width:2;stroke-linecap:butt;stroke-linejoin:miter;stroke-miterlimit:4;stroke-opacity:1;stroke-dasharray:none" />
      <path
         sodipodi:nodetypes="ccc"
         inkscape:connector-curvature="0"
         id="path4704"
         d="m 15.080965,1014.9949 c 0,0 7.020581,-4.7314 8.841594,10.4901 -3.301136,-7.279 -8.841594,-10.4901 -8.841594,-10.4901 z"
         style="fill:#a9a9a9;fill-opacity:1;stroke:none" />
      <path
         sodipodi:nodetypes="cssc"
         inkscape:connector-curvature="0"
         id="path4706"
         d="m 31.203442,1024.4035 c 0,0 5.500664,5.6044 3.260439,9.5231 -0.264495,0.4626 3.737724,-0.025 4.024737,-1.2142 0.286985,-1.1892 0.19574,-10.6955 -7.285176,-8.3089 z"
         style="fill:#a9a9a9;fill-opacity:1;stroke:none" />
      <path
         sodipodi:nodetypes="ccc"
         inkscape:connector-curvature="0"
         id="path4704-3"
         d="m 24.207494,1049.6592 c 0,0 11.283287,0.4934 2.814155,-14.4652 0.942203,7.9908 -2.814155,14.4652 -2.814155,14.4652 z"
         style="fill:#a9a9a9;fill-opacity:1;stroke:none" />
      <path
         inkscape:connector-curvature="0"
         id="path4726"
         d="m 17.197575,1016.4761 3.431844,-1.0354"
         style="fill:none;stroke:#808080;stroke-width:1px;stroke-linecap:butt;stroke-linejoin:miter;stroke-opacity:1" />
      <path
         inkscape:connector-curvature="0"
         id="path4728"
         d="m 19.708588,1018.7452 2.929624,-0.8838"
         style="fill:none;stroke:#808080;stroke-width:1px;stroke-linecap:butt;stroke-linejoin:miter;stroke-opacity:1" />
      <path
         inkscape:connector-curvature="0"
         id="path4730"
         d="m 32.941089,1026.5851 4.017767,-1.2121"
         style="fill:none;stroke:#808080;stroke-width:1px;stroke-linecap:butt;stroke-linejoin:miter;stroke-opacity:1" />
      <path
         inkscape:connector-curvature="0"
         id="path4732"
         d="m 34.741892,1029.5272 4.101472,-1.2374"
         style="fill:none;stroke:#808080;stroke-width:1px;stroke-linecap:butt;stroke-linejoin:miter;stroke-opacity:1" />
      <path
         inkscape:connector-curvature="0"
         id="path4734"
         d="m 34.934596,1032.5875 4.268878,-1.2878"
         style="fill:none;stroke:#808080;stroke-width:1px;stroke-linecap:butt;stroke-linejoin:miter;stroke-opacity:1" />
      <path
         inkscape:connector-curvature="0"
         id="path4736"
         d="m 27.13988,1040.3505 2.511105,-0.7575"
         style="fill:none;stroke:#808080;stroke-width:1px;stroke-linecap:butt;stroke-linejoin:miter;stroke-opacity:1" />
      <path
         inkscape:connector-curvature="0"
         id="path4738"
         d="m 26.688314,1043.697 4.603693,-1.3889"
         style="fill:none;stroke:#808080;stroke-width:1px;stroke-linecap:butt;stroke-linejoin:miter;stroke-opacity:1" />
      <path
         inkscape:connector-curvature="0"
         id="path4740"
         d="m 25.450433,1047.4641 4.938508,-1.4899"
         style="fill:none;stroke:#808080;stroke-width:1px;stroke-linecap:butt;stroke-linejoin:miter;stroke-opacity:1" />
    </g>
    <path
       style="fill:none;stroke:#808080;stroke-width:2;stroke-linecap:butt;stroke-linejoin:miter;stroke-miterlimit:4;stroke-opacity:1;stroke-dasharray:none"
       d="m 15.28217,27.316942 c -0.439947,-8.094781 3.446797,-2.358409 4.53033,-3.441942 0.799997,-0.799997 -0.275853,-5.73494 0.25,-7.3125 0.568143,-1.704429 7.332271,5.018342 4.801777,-3.838388"
       id="path3046"
       inkscape:connector-curvature="0"
       transform="translate(0,1012.3622)"
       sodipodi:nodetypes="cssc" />
  </g>
</svg>
