<?xml version="1.0" encoding="UTF-8" standalone="no"?>
<!-- Created with Inkscape (http://www.inkscape.org/) -->

<svg
   xmlns:dc="http://purl.org/dc/elements/1.1/"
   xmlns:cc="http://creativecommons.org/ns#"
   xmlns:rdf="http://www.w3.org/1999/02/22-rdf-syntax-ns#"
   xmlns:svg="http://www.w3.org/2000/svg"
   xmlns="http://www.w3.org/2000/svg"
   xmlns:sodipodi="http://sodipodi.sourceforge.net/DTD/sodipodi-0.dtd"
   xmlns:inkscape="http://www.inkscape.org/namespaces/inkscape"
   width="25"
   height="25"
   id="svg4246"
   version="1.1"
   inkscape:version="0.48.4 r9939"
   sodipodi:docname="New document 9">
  <defs
     id="defs4248" />
  <sodipodi:namedview
     id="base"
     pagecolor="#ffffff"
     bordercolor="#666666"
     borderopacity="1.0"
     inkscape:pageopacity="0.0"
     inkscape:pageshadow="2"
     inkscape:zoom="2.8284271"
     inkscape:cx="64.131422"
     inkscape:cy="-56.693128"
     inkscape:document-units="px"
     inkscape:current-layer="layer1"
     showgrid="false"
     inkscape:window-width="1871"
     inkscape:window-height="1056"
     inkscape:window-x="49"
     inkscape:window-y="24"
     inkscape:window-maximized="1" />
  <metadata
     id="metadata4251">
    <rdf:RDF>
      <cc:Work
         rdf:about="">
        <dc:format>image/svg+xml</dc:format>
        <dc:type
           rdf:resource="http://purl.org/dc/dcmitype/StillImage" />
        <dc:title></dc:title>
      </cc:Work>
    </rdf:RDF>
  </metadata>
  <g
     inkscape:label="Layer 1"
     inkscape:groupmode="layer"
     id="layer1"
     transform="translate(0,-1027.3622)">
    <g
       transform="matrix(0.94102673,0,0,0.98607979,-824.05849,466.62343)"
       id="g4217">
      <g
         transform="matrix(0.50372588,0,0,0.50372588,459.20201,303.17056)"
         id="g4026-4-7">
        <path
           style="fill:#ffffff;stroke:#000000;stroke-width:4.12172222;stroke-linecap:butt;stroke-linejoin:miter;stroke-miterlimit:4;stroke-opacity:1;stroke-dasharray:none"
           d="m 828.82274,536.27409 c 1.3906,10.96783 -1.07505,22.146 2.44385,32.70388 2.97551,8.92745 39.69539,7.96561 44.61858,0.58001 3.20834,-4.81303 1.25807,-32.04617 -0.66621,-37.81963 -4.6399,-5.78319 -13.60742,-0.57447 -22.55296,-0.2237 -4.47277,0.17539 -15.35068,-1.24081 -19.44653,-1.20928 -2.71317,2.6712 -1.40966,1.51079 -4.39673,5.96872 z"
           id="path4002-8-8"
           inkscape:connector-curvature="0"
           sodipodi:nodetypes="csscscc" />
        <path
           style="fill:#ffffff;stroke:#000000;stroke-width:2.06086111px;stroke-linecap:butt;stroke-linejoin:miter;stroke-opacity:1"
           d="m 833.4941,531.34708 c 1.23482,9.52806 1.23464,20.22347 4.35934,29.39539 2.64217,7.75552 26.96991,5.42572 31.34158,-0.99035 2.84893,-4.18122 4.04945,-25.47665 2.34074,-30.49221 -13.54146,3.0933 -17.90502,3.20299 -38.04166,2.08717 z"
           id="path4002-3-9-5"
           inkscape:connector-curvature="0"
           sodipodi:nodetypes="csscc" />
        <path
           sodipodi:nodetypes="cc"
           style="fill:none;stroke:#000000;stroke-width:2.06086111px;stroke-linecap:butt;stroke-linejoin:miter;stroke-opacity:1"
           d="m 839.21049,562.81067 c -0.2839,2.46389 -6.99965,3.71578 -7.58809,6.01877"
           id="path4022-5-8"
           inkscape:connector-curvature="0" />
        <path
           sodipodi:nodetypes="cc"
           style="fill:none;stroke:#000000;stroke-width:2.06086111px;stroke-linecap:butt;stroke-linejoin:miter;stroke-opacity:1"
           d="m 868.4862,561.30654 c 2.01325,1.15742 5.89134,6.31023 7.25644,7.64589"
           id="path4024-4-6"
           inkscape:connector-curvature="0" />
      </g>
      <g
         transform="matrix(1.4354839,0,0,1.4354839,-387.58266,-251.97785)"
         id="g4179">
        <path
           style="fill:none;stroke:#000000;stroke-width:1.44635427;stroke-linecap:butt;stroke-linejoin:miter;stroke-miterlimit:4;stroke-opacity:1;stroke-dasharray:none"
           d="m 886.125,581.625 c 2.26392,-1.00186 2.74317,-9.14551 4.25,-4.625 0.53565,1.60694 1.29077,3.20115 1.5,4.875"
           id="path4171"
           inkscape:connector-curvature="0" />
        <path
           style="fill:none;stroke:#000000;stroke-width:1.44635427;stroke-linecap:butt;stroke-linejoin:miter;stroke-miterlimit:4;stroke-opacity:1;stroke-dasharray:none"
           d="m 887.75,579.75 c 0.99945,-0.0973 2.90859,0.0871 3.25,0.125"
           id="path4173"
           inkscape:connector-curvature="0" />
      </g>
    </g>
  </g>
</svg>
