<?xml version="1.0" encoding="UTF-8" standalone="no"?>
<!-- Created with Inkscape (http://www.inkscape.org/) -->

<svg
   xmlns:dc="http://purl.org/dc/elements/1.1/"
   xmlns:cc="http://creativecommons.org/ns#"
   xmlns:rdf="http://www.w3.org/1999/02/22-rdf-syntax-ns#"
   xmlns:svg="http://www.w3.org/2000/svg"
   xmlns="http://www.w3.org/2000/svg"
   xmlns:sodipodi="http://sodipodi.sourceforge.net/DTD/sodipodi-0.dtd"
   xmlns:inkscape="http://www.inkscape.org/namespaces/inkscape"
   width="40"
   height="80"
   id="svg3412"
   version="1.1"
   inkscape:version="0.48.4 r9939"
   sodipodi:docname="column-top.svg">
  <defs
     id="defs3414" />
  <sodipodi:namedview
     id="base"
     pagecolor="#ffffff"
     bordercolor="#666666"
     borderopacity="1.0"
     inkscape:pageopacity="0.0"
     inkscape:pageshadow="2"
     inkscape:zoom="1"
     inkscape:cx="67.865448"
     inkscape:cy="33.793878"
     inkscape:document-units="px"
     inkscape:current-layer="layer1"
     showgrid="false"
     inkscape:window-width="1871"
     inkscape:window-height="1056"
     inkscape:window-x="49"
     inkscape:window-y="24"
     inkscape:window-maximized="1" />
  <metadata
     id="metadata3417">
    <rdf:RDF>
      <cc:Work
         rdf:about="">
        <dc:format>image/svg+xml</dc:format>
        <dc:type
           rdf:resource="http://purl.org/dc/dcmitype/StillImage" />
        <dc:title></dc:title>
      </cc:Work>
    </rdf:RDF>
  </metadata>
  <g
     inkscape:label="Layer 1"
     inkscape:groupmode="layer"
     id="layer1"
     transform="translate(0,-972.3622)">
    <g
       id="g5112"
       transform="matrix(1.0396938,0,0,1.1892833,-45.560603,766.68646)">
      <path
         sodipodi:nodetypes="csssscccsc"
         inkscape:connector-curvature="0"
         id="path4995"
         d="m 58.352476,651.33966 c -0.983538,2.44168 -16.239996,13.94304 -13.159457,15.48331 1.057643,0.52882 3.400804,1.61244 4.625,1.61244 0.390779,0 4.449901,-7.63757 5.647971,-7.63757 2.990459,0 -6.171163,11.9983 -0.21599,13.18934 1.835574,0.36711 13.360512,1.58423 14.5,-0.125 1.025023,-1.16902 0.777728,-17.67479 0.777728,-13.53401 1.754203,4.92344 3.552225,17.06121 6.786612,11.30438 2.41906,-4.83812 -4.586082,-20.17777 -9.875,-21.5 -5.446776,-1.36169 -4.198915,1.8181 -9.086864,1.20711 z"
         style="fill:#ffe4e1;fill-opacity:1;stroke:#fa8072;stroke-width:1.79859996;stroke-linecap:butt;stroke-linejoin:miter;stroke-miterlimit:4;stroke-opacity:1;stroke-dasharray:none"
         transform="translate(0,-452.36218)" />
      <path
         inkscape:connector-curvature="0"
         id="path4997"
         d="m 53.886562,674.23081 c -0.130893,1.35264 -0.123009,2.71538 -0.265165,4.06586 -0.344116,3.26911 -2.073211,7.44028 -1.237437,10.78338 0.197117,0.78847 7.860026,1.69899 7.866563,1.67938 0.481223,-1.44367 -0.954074,-8.98052 0.176777,-9.54594 0.620689,-0.31035 0.824723,7.77747 1.325825,9.28077 0.523938,1.57182 5.046407,1.41008 6.275573,0.7955 0.381887,-0.19094 1.858147,-15.90791 0.795495,-16.97056 -2.590294,-2.5903 -11.771803,-0.48412 -14.937631,-0.0884 z"
         style="fill:#ffe4e1;fill-opacity:1;stroke:#fa8072;stroke-width:1.79859996;stroke-linecap:butt;stroke-linejoin:miter;stroke-miterlimit:4;stroke-opacity:1;stroke-dasharray:none"
         transform="translate(0,-452.36218)" />
      <path
         inkscape:connector-curvature="0"
         id="path4959"
         d="m 78,179.25 c -3.016335,-3.97025 -5.287765,-5.5 -10.25,-5.5 -14.839689,0 -28.073625,17.71319 -10.5,26.5 14.626304,7.31315 32.00496,-7.49405 20.75,-21 z"
         style="fill:#ffe4e1;stroke:#fa8072;stroke-width:1.79859996;stroke-linecap:butt;stroke-linejoin:miter;stroke-miterlimit:4;stroke-opacity:1;stroke-dasharray:none" />
      <path
         inkscape:connector-curvature="0"
         id="path4961"
         d="m 63.534309,182.31138 c 0.245532,1.54938 0.30936,3.06686 0.30936,4.68459"
         style="fill:none;stroke:#fa8072;stroke-width:0.89929998px;stroke-linecap:butt;stroke-linejoin:miter;stroke-opacity:1" />
      <path
         inkscape:connector-curvature="0"
         id="path4963"
         d="m 70.914737,182.13461 c 0.167415,1.57141 -0.0099,3.39338 -0.176777,4.72878"
         style="fill:none;stroke:#fa8072;stroke-width:0.89929998px;stroke-linecap:butt;stroke-linejoin:miter;stroke-opacity:1" />
      <path
         inkscape:connector-curvature="0"
         id="path4971"
         d="m 64.153028,195.34866 c 2.494434,-0.0614 5.05504,0.11967 7.51301,-0.0442"
         style="fill:none;stroke:#fa8072;stroke-width:0.89929998px;stroke-linecap:butt;stroke-linejoin:miter;stroke-opacity:1" />
      <path
         sodipodi:nodetypes="ccc"
         inkscape:connector-curvature="0"
         id="path5066"
         d="m 71.701903,174.8295 c 0,0 20.297019,11.90901 1.070621,24.94455 7.773713,-11.62567 -1.070621,-24.94455 -1.070621,-24.94455 z"
         style="fill:#ffb1a9;fill-opacity:1;stroke:none" />
      <path
         inkscape:connector-curvature="0"
         id="path5068"
         d="m 74.125,179.25 3.75,0"
         style="fill:none;stroke:#fa8072;stroke-width:0.89929998px;stroke-linecap:butt;stroke-linejoin:miter;stroke-opacity:1" />
      <path
         inkscape:connector-curvature="0"
         id="path5070"
         d="m 75.375,183.6875 5.75,0"
         style="fill:none;stroke:#fa8072;stroke-width:0.89929998px;stroke-linecap:butt;stroke-linejoin:miter;stroke-opacity:1" />
      <path
         inkscape:connector-curvature="0"
         id="path5072"
         d="m 75.875,189.875 5.9375,0"
         style="fill:none;stroke:#fa8072;stroke-width:0.89929998px;stroke-linecap:butt;stroke-linejoin:miter;stroke-opacity:1" />
      <path
         inkscape:connector-curvature="0"
         id="path5074"
         d="m 78.9375,195.625 -4.125,0"
         style="fill:none;stroke:#fa8072;stroke-width:0.89929998px;stroke-linecap:butt;stroke-linejoin:miter;stroke-opacity:1" />
      <path
         sodipodi:nodetypes="ccsc"
         inkscape:connector-curvature="0"
         id="path5076"
         d="m 71.5625,202.125 3.125,11.625 c 0,0 -0.05005,7.05661 0.875,6.375 1.1875,-0.875 4.0625,-6.1875 -4,-18 z"
         style="fill:#ffb1a9;fill-opacity:1;stroke:none" />
      <path
         inkscape:connector-curvature="0"
         id="path5074-3"
         d="m 77.307926,215.5625 -2.615853,0"
         style="fill:none;stroke:#fa8072;stroke-width:0.89929998px;stroke-linecap:butt;stroke-linejoin:miter;stroke-opacity:1" />
      <path
         inkscape:connector-curvature="0"
         id="path5074-7"
         d="m 76.439025,210.3125 -2.565549,0"
         style="fill:none;stroke:#fa8072;stroke-width:0.89929998px;stroke-linecap:butt;stroke-linejoin:miter;stroke-opacity:1" />
      <path
         inkscape:connector-curvature="0"
         id="path5074-2"
         d="m 74.866621,205.5625 -2.358241,0"
         style="fill:none;stroke:#fa8072;stroke-width:0.89929998px;stroke-linecap:butt;stroke-linejoin:miter;stroke-opacity:1" />
    </g>
  </g>
</svg>
